<?xml version="1.0" standalone="no"?>
<!DOCTYPE svg PUBLIC "-//W3C//DTD SVG 20010904//EN"
 "http://www.w3.org/TR/2001/REC-SVG-20010904/DTD/svg10.dtd">
<svg version="1.0" xmlns="http://www.w3.org/2000/svg"
 width="208.000000pt" height="187.000000pt" viewBox="0 0 208.000000 187.000000"
 preserveAspectRatio="xMidYMid meet">

<g transform="translate(0.000000,187.000000) scale(0.100000,-0.100000)"
fill="#000000" stroke="none">
<path d="M465 1812 c-16 -7 -7 -15 55 -48 89 -46 196 -144 233 -212 40 -73 61
-165 54 -238 -3 -34 -22 -111 -41 -171 -38 -116 -47 -210 -25 -271 8 -23 7
-42 -5 -83 -9 -29 -16 -65 -16 -80 0 -40 -16 -44 -44 -12 -105 119 -122 278
-52 489 21 66 36 131 36 160 0 129 -77 225 -251 312 -58 28 -110 52 -116 52
-18 0 -54 -66 -80 -148 -33 -104 -42 -284 -20 -394 22 -103 69 -222 119 -299
110 -172 320 -329 437 -329 l49 0 18 53 c35 108 89 186 169 242 75 54 145 75
280 86 231 18 305 52 370 171 22 41 29 72 38 164 8 89 8 117 -2 127 -8 8 -50
12 -134 11 -131 -1 -218 -17 -316 -60 -68 -31 -79 -30 -92 4 -66 181 -241 358
-437 442 -73 31 -189 47 -227 32z"/>
<path d="M1820 1227 c0 -57 -24 -145 -56 -208 -73 -145 -248 -238 -449 -239
-88 0 -176 -22 -235 -58 -46 -28 -99 -96 -118 -151 l-11 -31 359 0 359 0 51
67 c68 89 125 208 151 312 28 111 24 245 -9 309 -12 23 -27 42 -32 42 -6 0
-10 -19 -10 -43z"/>
<path d="M68 342 c-35 -21 -36 -32 -3 -32 14 0 25 -4 25 -9 0 -23 -14 -41 -31
-41 -10 0 -19 -4 -19 -10 0 -5 25 -10 55 -10 30 0 55 5 55 10 0 6 -7 10 -14
10 -11 0 -16 14 -18 47 -3 53 -11 58 -50 35z"/>
<path d="M210 341 c-5 -11 -10 -29 -10 -41 0 -41 18 -60 58 -60 21 0 43 5 50
12 16 16 16 80 0 96 -20 20 -86 15 -98 -7z m78 -35 c4 -35 -9 -50 -37 -41 -15
4 -21 15 -21 34 0 34 8 43 35 39 14 -2 21 -12 23 -32z"/>
<path d="M380 341 c-15 -29 -12 -67 6 -85 18 -19 75 -21 92 -4 16 16 16 80 0
96 -20 20 -86 15 -98 -7z m78 -39 c2 -22 -2 -34 -12 -38 -22 -8 -46 13 -46 41
0 28 9 37 35 33 15 -2 21 -12 23 -36z"/>
<path d="M552 348 c-7 -7 -12 -28 -12 -48 0 -46 15 -60 62 -60 42 0 58 19 58
67 0 38 -17 53 -60 53 -20 0 -41 -5 -48 -12z m73 -48 c0 -31 -3 -35 -25 -35
-19 0 -26 6 -28 23 -5 36 5 54 30 50 19 -2 23 -9 23 -38z"/>
<path d="M744 343 c-3 -10 -10 -25 -15 -33 -34 -54 -18 -69 72 -68 65 0 87 9
55 21 -9 4 -12 14 -9 26 7 26 -22 29 -31 5 -6 -15 -8 -15 -26 1 -29 27 -25 45
10 45 17 0 30 5 30 10 0 6 -18 10 -40 10 -30 0 -42 -5 -46 -17z m23 -79 c-9
-9 -28 6 -21 18 4 6 10 6 17 -1 6 -6 8 -13 4 -17z"/>
<path d="M930 350 c0 -5 13 -10 28 -10 42 0 45 -9 16 -58 -23 -39 -24 -43 -7
-40 15 3 72 89 73 111 0 4 -25 7 -55 7 -30 0 -55 -4 -55 -10z"/>
<path d="M1186 344 c-20 -20 -20 -53 0 -82 12 -17 25 -22 59 -22 57 0 68 18
14 22 -80 6 -80 70 0 76 23 2 39 7 36 13 -10 15 -92 11 -109 -7z"/>
<path d="M1360 341 c-15 -29 -12 -67 6 -85 22 -23 96 -21 117 2 21 23 22 66 1
86 -24 24 -110 22 -124 -3z m108 -29 c4 -29 -14 -52 -42 -52 -28 0 -46 18 -46
46 0 26 14 34 55 31 23 -2 31 -7 33 -25z"/>
<path d="M1559 317 c-5 -52 -1 -77 12 -77 5 0 11 11 15 25 5 21 12 25 40 25
19 0 34 5 34 10 0 6 -16 10 -35 10 -24 0 -35 5 -35 15 0 11 11 15 39 15 22 0
43 5 46 10 4 6 -16 10 -53 10 l-60 0 -3 -43z"/>
<path d="M1730 300 c0 -45 3 -60 14 -60 8 0 16 10 18 23 2 15 11 23 28 25 48
6 56 15 17 21 -50 8 -52 25 -2 29 70 6 64 22 -8 22 l-67 0 0 -60z"/>
<path d="M1910 300 l0 -60 60 0 c68 0 82 17 18 22 -50 4 -57 22 -10 26 41 4
42 20 0 24 -52 5 -47 28 6 28 25 0 46 5 46 10 0 6 -27 10 -60 10 l-60 0 0 -60z"/>
<path d="M745 90 c4 -6 112 -10 291 -10 183 0 284 4 284 10 0 6 -104 10 -291
10 -191 0 -288 -3 -284 -10z"/>
</g>
</svg>
